<svg viewBox="0 0 64 64" xml:space="preserve" xmlns="http://www.w3.org/2000/svg"><g fill="#494e4c" class="fill-241f20"><path d="M1.802 58.556a.801.801 0 0 1-.818-.819V17.31a.81.81 0 0 1 .818-.818h18.261V6.262c0-.458.358-.818.816-.818h22.24c.458 0 .816.359.816.818v10.23h18.262c.458 0 .817.359.817.818v40.426a.8.8 0 0 1-.817.819H1.802zm3.969-29.672c-.711 0-1.33.244-1.79.704-.583.584-.877 1.461-.875 2.608v21.468c.025 1.069.755 2.626 2.665 2.626h19.388c.812-.038 2.301-.617 2.47-2.539.021-.784-.217-1.419-.685-1.899-.613-.629-1.483-.853-2.093-.853l-16.42-.034-.034-18.672c.052-.364.134-1.431-.505-2.311-.311-.427-.91-.963-2.004-1.092l-.058-.007h-.059zM32 19.886c-7.396 0-13.413 6.016-13.413 13.411 0 7.396 6.017 13.414 13.413 13.414s13.412-6.018 13.412-13.414c0-7.395-6.016-13.411-13.412-13.411z"></path><path d="M42.937 6.444v11.048h19.079v40.063H1.984V17.492h19.079V6.444h21.874M32 47.711c7.947 0 14.412-6.466 14.412-14.414 0-7.946-6.465-14.411-14.412-14.411S17.587 25.35 17.587 33.297c0 7.948 6.466 14.414 14.413 14.414M5.771 57.29h19.437l.049-.002c1.238-.061 3.156-1.029 3.368-3.449l.006-.062.001-.062c.024-.997-.312-1.883-.973-2.561-.83-.851-1.996-1.154-2.805-1.154l-15.427-.033-.03-17.607c.071-.567.113-1.851-.697-2.965-.428-.589-1.243-1.326-2.696-1.497l-.116-.014h-.117c-.982 0-1.846.345-2.498.998-.777.778-1.17 1.894-1.167 3.332v21.498c.041 1.734 1.339 3.578 3.665 3.578M43.12 4.444H20.88c-1.018 0-1.816.82-1.816 1.818v9.23H1.802A1.81 1.81 0 0 0-.016 17.31v40.426a1.8 1.8 0 0 0 1.818 1.819h60.396a1.801 1.801 0 0 0 1.817-1.819V17.31a1.811 1.811 0 0 0-1.817-1.818H44.937v-9.23c0-.998-.799-1.818-1.817-1.818zM32 45.711c-6.855 0-12.413-5.558-12.413-12.414 0-6.853 5.558-12.411 12.413-12.411 6.854 0 12.412 5.558 12.412 12.411 0 6.856-5.558 12.414-12.412 12.414zM5.771 55.29c-1.626 0-1.665-1.626-1.665-1.626v-21.45c0-.343-.034-2.33 1.665-2.33 2.042.24 1.626 2.33 1.626 2.33l.034 19.749 17.419.036c.514 0 1.816.309 1.782 1.665-.137 1.561-1.474 1.626-1.474 1.626H5.771z"></path></g></svg>